<svg xmlns="http://www.w3.org/2000/svg" viewBox="0 0 64 64" id="food"><path d="M32,13A19,19,0,1,0,51,32,19.021,19.021,0,0,0,32,13Zm0,36A17,17,0,1,1,49,32,17.019,17.019,0,0,1,32,49Z"></path><path d="M13 21V11H11v9H10V11H8v9H7V11H5v9H4V11H2V26a3.006 3.006 0 0 0 2 2.829V52a3 3 0 0 0 3 3H8a3 3 0 0 0 3-3V28.829A3.006 3.006 0 0 0 13 26zm-2 5a1 1 0 0 1-1 1 1 1 0 0 0-1 1V52a1 1 0 0 1-1 1H7a1 1 0 0 1-1-1V28a1 1 0 0 0-1-1 1 1 0 0 1-1-1V22h7zM61 10a9.01 9.01 0 0 0-9 9V32a3 3 0 0 0 3 3V54a1 1 0 0 0 1 1h5a1 1 0 0 0 1-1V11A1 1 0 0 0 61 10zM60 53H57V34a1 1 0 0 0-1-1H55a1 1 0 0 1-1-1V19a7.011 7.011 0 0 1 6-6.929z"></path><rect width="2" height="15" x="55" y="16"></rect><path d="M32,22A10,10,0,1,0,42,32,10.011,10.011,0,0,0,32,22Zm0,18a8,8,0,1,1,8-8A8.009,8.009,0,0,1,32,40Z"></path></svg>